<svg width="233" height="167" viewBox="0 0 233 167" fill="none" xmlns="http://www.w3.org/2000/svg">
<g opacity="0.451993">
<path fill-rule="evenodd" clip-rule="evenodd" d="M203 27.198L203.44 37.1269L206.226 41H210.468L213.542 39.8722L214.709 37.197L218 35.79L217.15 30.7835L209.864 26L203 27.198Z" fill="#FFFCFD"/>
<path fill-rule="evenodd" clip-rule="evenodd" d="M161.18 99.0355L160.149 147.222H163.652C163.652 147.222 168.711 132.003 169.497 126.827C170.372 121.066 170.109 103.559 170.109 103.559L175.328 104.107L204.108 94.0997L203.431 87.6421L195.041 87.6039L161.18 99.0355Z" fill="#61A600"/>
<path fill-rule="evenodd" clip-rule="evenodd" d="M199.576 76.5199L201.961 74.8737L209.787 81.3426L210.533 82.9012L205.999 83.8366L201.146 76.8816L199.576 76.5199Z" stroke="#A8BACE" stroke-width="0.25"/>
<path fill-rule="evenodd" clip-rule="evenodd" d="M170.059 60.4824L177.007 65.3065L186.363 63.8723L194.331 68.5325V74.4094C194.331 74.4094 188.649 75.5144 186.733 75.4352C184.632 75.3476 180.312 74.7216 178.518 73.6251C175.199 71.5988 167.944 62.2303 167.944 62.2303L158.701 56.865L157.553 55.4181H158.399L161.479 57.5885L159.365 54.9362L157.553 52.4634H159.184L163.352 55.3573L160.937 52.4634L160.271 49.7503H161.057L162.145 52.5849L167.641 56.3224V55.4774L166.918 53.7295L166.857 51.9815L167.462 51.86L167.944 52.705V53.7295L170.179 56.4425L170.421 57.7086L170.059 60.4824Z" fill="#FFFCFD"/>
<path fill-rule="evenodd" clip-rule="evenodd" d="M211.127 30.8174L208.679 28.329H201.452C201.452 28.329 199.015 27.8401 199.015 25.6626C199.015 23.885 200.485 23.3961 200.485 23.3961L213.888 23.796C213.888 23.796 214.679 24.1959 214.868 25.1737C214.932 25.5001 214.868 26.5062 214.868 26.5062H217.941C217.941 26.5062 218.875 26.1063 219.411 27.7059C220.042 29.6007 219.098 30.2847 219.098 30.2847L220.078 31.7062C220.078 31.7062 220.807 33.9487 219.17 36.4003C217.567 38.7997 214.679 37.7936 214.679 37.7936H213.176L213.265 35.7503L214.378 35.3942L215.136 34.4164L215.18 33.1277L214.679 31.928L213.71 31.4843L213.043 31.5719L212.954 33.3057L211.039 33.2605L211.127 30.8174Z" fill="#004669"/>
<path fill-rule="evenodd" clip-rule="evenodd" d="M175.032 150.835L172.796 153H167.867L172.375 147.489H175.032V150.835Z" fill="#004669"/>
<path fill-rule="evenodd" clip-rule="evenodd" d="M162.739 151.163H152.09L152.747 150.245L159.386 148.408L160.148 147.49H163.2L162.739 151.163Z" fill="#004669"/>
<path fill-rule="evenodd" clip-rule="evenodd" d="M138.781 60.0856H168.57L173.296 81.342L143.227 80.1367L138.781 60.0856Z" fill="#CFDBEA"/>
<path fill-rule="evenodd" clip-rule="evenodd" d="M184.22 81.3427L182.976 83.7788L143.494 82.5608L143.228 80.1374L184.22 81.3427Z" fill="#A8BACE"/>
<path fill-rule="evenodd" clip-rule="evenodd" d="M129 82.3583L192.223 84.2376V87.6035L129 85.9206V82.3583Z" fill="#A8BACE"/>
<path fill-rule="evenodd" clip-rule="evenodd" d="M226.28 66.563L222.859 66.3398L215.647 88.2052L216.246 91.9907H224.857L223.523 83.8375L223.968 75.4383L226.28 66.563Z" fill="#8E12FC"/>
<path fill-rule="evenodd" clip-rule="evenodd" d="M213.788 105.702H222.86C222.86 105.702 225.502 107.341 225.465 110.358C225.45 111.559 224.501 113.859 224.501 113.859L184.076 113.502L183.159 105.135L205.054 104.543L213.788 105.702Z" fill="#8E12FC"/>
<mask id="mask0" mask-type="alpha" maskUnits="userSpaceOnUse" x="129" y="23" width="104" height="130">
<path fill-rule="evenodd" clip-rule="evenodd" d="M129 153H232.86V23.3956H129V153Z" fill="white"/>
</mask>
<g mask="url(#mask0)">
<path fill-rule="evenodd" clip-rule="evenodd" d="M130.658 151.528H134.175V86.1306H130.658V151.528Z" fill="#A8BACE"/>
<path fill-rule="evenodd" clip-rule="evenodd" d="M190.769 139.271C195.123 136.741 200.049 135.834 200.049 135.834H202.078H204.108C204.108 135.834 209.033 136.741 213.387 139.271C218.118 142.019 221.771 145.691 221.771 145.691H218.132L202.078 139.466L186.024 145.691H182.385C182.385 145.691 186.038 142.019 190.769 139.271Z" fill="#A8BACE"/>
<path fill-rule="evenodd" clip-rule="evenodd" d="M220.476 147.533C220.476 148.549 221.302 149.374 222.321 149.374C223.341 149.374 224.166 148.549 224.166 147.533C224.166 146.516 223.341 145.692 222.321 145.692C221.302 145.692 220.476 146.516 220.476 147.533Z" fill="#A8BACE"/>
<path fill-rule="evenodd" clip-rule="evenodd" d="M216.786 147.533C216.786 148.549 217.612 149.374 218.631 149.374C219.649 149.374 220.476 148.549 220.476 147.533C220.476 146.516 219.649 145.692 218.631 145.692C217.612 145.692 216.786 146.516 216.786 147.533Z" fill="#A8BACE"/>
<path fill-rule="evenodd" clip-rule="evenodd" d="M183.902 147.533C183.902 148.549 184.728 149.374 185.747 149.374C186.767 149.374 187.592 148.549 187.592 147.533C187.592 146.516 186.767 145.692 185.747 145.692C184.728 145.692 183.902 146.516 183.902 147.533Z" fill="#A8BACE"/>
<path fill-rule="evenodd" clip-rule="evenodd" d="M180.212 147.533C180.212 148.549 181.038 149.374 182.057 149.374C183.077 149.374 183.902 148.549 183.902 147.533C183.902 146.516 183.077 145.692 182.057 145.692C181.038 145.692 180.212 146.516 180.212 147.533Z" fill="#A8BACE"/>
<path fill-rule="evenodd" clip-rule="evenodd" d="M199.023 115.766L184.221 115.618L184.515 113.505L224.502 113.86L225.465 111.475L226.738 111.546L227.906 107.542L226.949 101.363L223.852 92.444L224.858 91.9904L223.524 83.8372L223.968 75.438L226.281 66.5627L227.906 67.4445L225.465 75.438V84.2371L226.686 92.5133L229.342 101.081L230.326 107.191L228.708 112.879L226.281 116.039L205.946 115.836C206.487 116.192 206.817 116.627 206.817 117.104C206.817 118.07 205.5 118.875 203.701 119.143L204.108 135.512H200.048L200.922 119.11C199.241 118.809 198.033 118.029 198.033 117.104C198.033 116.596 198.414 116.134 199.023 115.766Z" fill="#7412E0"/>
<path fill-rule="evenodd" clip-rule="evenodd" d="M183.159 105.135L207.267 107.328C207.267 107.328 210.915 107.328 214.342 105.41C215.625 104.692 216.814 101.863 216.953 100.475C217.259 97.4047 215.647 88.2057 215.647 88.2057L202.59 87.6038L200.88 91.4261L172.856 99.5836V138.996L172.375 147.222H176.222C176.222 147.222 183.458 129.867 184.327 123.985C185.037 119.17 183.159 105.135 183.159 105.135Z" fill="#7ED229"/>
<path fill-rule="evenodd" clip-rule="evenodd" d="M196.531 153H200.049V87.6029H196.531V153Z" fill="#CFDBEA"/>
<path fill-rule="evenodd" clip-rule="evenodd" d="M173.9 80.1973L178.914 77.1225L194.331 76.6732L194.684 84.0719L182.6 79.3551L179.639 80.138L178.975 81.2825L173.295 81.3433L173.9 80.1973Z" fill="#FFFCFD"/>
<path fill-rule="evenodd" clip-rule="evenodd" d="M202.597 41.7326H202.567V36.2697L207.022 36.6357L208.228 37.81V40.0171L211.278 39.6964L213.246 37.81H213.889V39.8546L202.597 47.6956V41.7326Z" fill="#004669"/>
<path fill-rule="evenodd" clip-rule="evenodd" d="M194.835 87.2453L202.591 87.6028H192.223V84.2369H194.692L194.835 87.2453Z" fill="#CFDBEA"/>
<path fill-rule="evenodd" clip-rule="evenodd" d="M232.86 84.2371V87.6029H215.846L216.957 84.2371H232.86Z" fill="#CFDBEA"/>
<path fill-rule="evenodd" clip-rule="evenodd" d="M215.647 88.205L202.59 87.6031H215.847L215.647 88.205Z" fill="#A8BACE"/>
<path fill-rule="evenodd" clip-rule="evenodd" d="M191.323 60.2409L191.864 59.4538L191.608 60.2395C191.608 60.2395 191.5 60.2338 191.323 60.2409Z" fill="#CFDBEA"/>
<path fill-rule="evenodd" clip-rule="evenodd" d="M185.975 61.58H187.871C187.858 61.5914 187.844 61.5998 187.83 61.6097C187.254 62.0619 185.975 63.872 185.975 63.872H184.728L185.975 61.58Z" fill="#CFDBEA"/>
<path fill-rule="evenodd" clip-rule="evenodd" d="M187.872 61.58C189.336 60.451 190.742 60.2645 191.324 60.2405L194.542 63.222L191.865 59.4548L197.652 41.8003L202.567 41.7339V47.7379H209.996L210.959 47.2815L213.385 45.7271L213.889 43.2147V39.8545L214.342 39.5394L216.609 41.4583L222.499 42.6071L222.859 66.3406L216.957 84.2368H206.102V81.1012L201.993 76.0369L199.576 76.5202L194.331 76.6728L193.943 68.5336L189.271 61.58H187.872Z" fill="#A8BACE"/>
<path fill-rule="evenodd" clip-rule="evenodd" d="M187.829 61.6104C187.844 61.5991 187.858 61.5906 187.872 61.5807H189.271L193.942 68.5329L185.974 63.8727C185.974 63.8727 187.253 62.0612 187.829 61.6104Z" fill="#CFDBEA"/>
<path fill-rule="evenodd" clip-rule="evenodd" d="M191.323 60.2409C191.5 60.2338 191.608 60.2395 191.608 60.2395L191.864 59.4538L194.542 63.2224L191.323 60.2409Z" fill="#CFDBEA"/>
<path fill-rule="evenodd" clip-rule="evenodd" d="M194.684 84.0722L195.106 84.2375H194.692L194.684 84.0722Z" fill="#A8BACE"/>
<path fill-rule="evenodd" clip-rule="evenodd" d="M194.692 84.2371H195.106H206.102H216.957L215.845 87.6029H202.59L194.835 87.2454L194.692 84.2371Z" fill="#CFDBEA"/>
<path fill-rule="evenodd" clip-rule="evenodd" d="M213.385 45.7275L210.959 47.2819L209.996 47.7383H202.567V41.7329H202.596V47.6959L213.889 39.8549V43.2151L213.385 45.7275Z" fill="#A8BACE"/>
<path fill-rule="evenodd" clip-rule="evenodd" d="M199.576 76.5199L201.993 76.038L206.101 81.1024V84.2365H195.106L194.684 84.0726L194.33 76.6725L199.576 76.5199Z" fill="#FFFCFD"/>
<path fill-rule="evenodd" clip-rule="evenodd" d="M222.499 42.6075C222.499 42.6075 226.757 43.9796 227.826 49.0906C228.24 51.0703 226.917 57.128 226.917 57.128L213.535 82.2816L205.999 83.8373L201.452 75.9285C201.452 75.9285 213.286 51.1268 219.512 44.5519C220.123 43.9047 222.499 42.6075 222.499 42.6075Z" fill="#CFDBEA"/>
<path fill-rule="evenodd" clip-rule="evenodd" d="M200.657 75.4388H202.25L209.218 83.4578L208.653 84.1657L204.943 84.2378L200.657 75.4388Z" fill="#A8BACE"/>
</g>
</g>
<path fill-rule="evenodd" clip-rule="evenodd" d="M7 109H37V99H7V109Z" fill="#FFFCFD"/>
<path fill-rule="evenodd" clip-rule="evenodd" d="M36 109V99L84 100.815V109H36Z" fill="#CFDBEA"/>
<path fill-rule="evenodd" clip-rule="evenodd" d="M1 96H39V95H1V96Z" fill="#8E12FC"/>
<path fill-rule="evenodd" clip-rule="evenodd" d="M1 97L6.23153 99.4315L53 100L39.3563 97H1Z" fill="#A8BACE"/>
<path fill-rule="evenodd" clip-rule="evenodd" d="M40 95V97.1675L53.5686 101.775L58 102L40 95Z" fill="#7412E0"/>
<path fill-rule="evenodd" clip-rule="evenodd" d="M0 112H80V111H0V112Z" fill="#7412E0"/>
<path fill-rule="evenodd" clip-rule="evenodd" d="M5 130V112H52V129.86L5 130Z" fill="#CFDBEA"/>
<path fill-rule="evenodd" clip-rule="evenodd" d="M81 112V113.954H53.6686V128.464H80.4041L80.2581 130L51 129.86V112H81Z" fill="#8E12FC"/>
<path fill-rule="evenodd" clip-rule="evenodd" d="M54 129H78V114H54V129Z" fill="#FFFCFD"/>
<path fill-rule="evenodd" clip-rule="evenodd" d="M12 131.657V132.883H84.8641V142.821H12V145H84.8641L87 143.23V132.61L84.7306 131H80.739L12 131.657Z" fill="#7412E0"/>
<path fill-rule="evenodd" clip-rule="evenodd" d="M51 133.493V142H84V133L51 133.493Z" fill="#A8BACE"/>
<path fill-rule="evenodd" clip-rule="evenodd" d="M13 133V142H51V133.493L13 133Z" fill="#FFFCFD"/>
<path fill-rule="evenodd" clip-rule="evenodd" d="M11.6419 144H1.57785L0 145.974V163.451L1.57785 165H90.0831L90.4751 162.746H1.57785V146.256H91V144.705V144H11.6419Z" fill="#7412E0"/>
<path fill-rule="evenodd" clip-rule="evenodd" d="M87 146.821V162H35V146L87 146.821Z" fill="#FFFCFD"/>
<path fill-rule="evenodd" clip-rule="evenodd" d="M1 146V162H1.62355H35V146H1Z" fill="#A8BACE"/>
<path fill-rule="evenodd" clip-rule="evenodd" d="M5 159V167L8.4992 164.09L12 167V159H5Z" fill="#7ED229"/>
<path fill-rule="evenodd" clip-rule="evenodd" d="M62.7062 84.3305L69.2615 84.6055C69.2615 84.6055 105.213 84.8375 116.34 86.5821C116.815 86.6567 117.293 87.6707 117.541 88.0849C119.559 91.4797 123.686 102.648 123.686 102.648L136.432 135.979L129.235 139.133L112.293 103.099L62.4911 86.2806L62.7062 84.3305Z" fill="#7412E0"/>
<path fill-rule="evenodd" clip-rule="evenodd" d="M109.592 141.385L112.293 97.5437C112.293 97.5437 112.542 93.4663 112.293 92.1375C112.089 91.0655 111.075 89.0409 110.342 88.234C109.867 87.7104 107.944 86.7329 107.944 86.7329L43.6391 85.0811L42.8714 87.7833V92.1375L43.6391 96.4916L58.1643 100.846L101.047 102.648L103.596 141.385H109.592Z" fill="#8E12FC"/>
<path fill-rule="evenodd" clip-rule="evenodd" d="M146.472 147.035L138.716 145.678L134.885 136.657L130.908 138.4L134.422 145.98L134.119 147.789L146.472 148.468V147.035Z" fill="#FFFCFD"/>
<mask id="mask1" mask-type="alpha" maskUnits="userSpaceOnUse" x="133" y="147" width="21" height="5">
<path fill-rule="evenodd" clip-rule="evenodd" d="M153.326 151.484V147.035H133.517V151.484H153.326Z" fill="white"/>
</mask>
<g mask="url(#mask1)">
<path fill-rule="evenodd" clip-rule="evenodd" d="M134.496 149.373L133.517 148.091L134.119 147.789L146.472 148.468V147.035L153.326 147.562L152.421 148.845L147.678 149.751H137.81L137.133 151.484H136.432L134.496 149.373Z" fill="#004669"/>
</g>
<path fill-rule="evenodd" clip-rule="evenodd" d="M108.332 141.385L108.814 147.638L115.743 152.39L113.86 153.22L104.897 147.487V141.385H108.332Z" fill="#FFFCFD"/>
<path fill-rule="evenodd" clip-rule="evenodd" d="M118.982 155.256H113.558L107.305 151.485H105.876L103.919 149.26L104.521 147.487L113.859 153.22L116.42 152.315L118.982 153.974V155.256Z" fill="#004669"/>
<path fill-rule="evenodd" clip-rule="evenodd" d="M95.5951 63.9988H121.535L116.287 83.8177H89.748L95.5951 63.9988Z" fill="#CFDBEA"/>
<path fill-rule="evenodd" clip-rule="evenodd" d="M70.6801 24.8878C67.4852 24.8878 67.4802 29.8582 70.6801 29.8582C73.875 29.8582 73.88 24.8878 70.6801 24.8878Z" fill="#FFFCFD"/>
<mask id="mask2" mask-type="alpha" maskUnits="userSpaceOnUse" x="0" y="12" width="154" height="155">
<path fill-rule="evenodd" clip-rule="evenodd" d="M0 167H153.326V12.2442H0V167Z" fill="white"/>
</mask>
<g mask="url(#mask2)">
<path fill-rule="evenodd" clip-rule="evenodd" d="M61.074 84.331H72.3133V47.5014H61.074V84.331Z" fill="#CFDBEA"/>
<path fill-rule="evenodd" clip-rule="evenodd" d="M81.2697 46.4444C81.2697 46.4444 81.3094 41.6197 80.8395 40.455C79.2131 36.4222 77.3798 36.2102 77.3798 36.2102C77.3798 36.2102 84.276 34.6693 85.5433 30.9564C87.0357 26.5774 84.7988 19.5442 84.7988 19.5442L83.3527 21.0022L83.4785 20.9326L84.2644 23.0931C84.2644 23.0931 85.1462 25.744 82.7918 29.674C81.991 31.0127 79.4563 34.2916 79.4563 34.2916L75.3365 33.1119C75.3365 33.1119 71.1604 34.8317 70.5317 35.7645C70.2091 36.24 70.2074 37.534 70.2736 38.6341L79.539 69.7095C79.539 69.7095 86.6072 66.4622 87.0589 57.9477C87.4841 49.9469 81.2697 46.4444 81.2697 46.4444Z" fill="#004669"/>
<path fill-rule="evenodd" clip-rule="evenodd" d="M70.4377 28.1239C70.9274 27.027 71.0499 26.2467 71.0499 26.2467C71.0499 26.2467 71.7961 26.588 72.9145 26.757L83.353 21.0012L83.4788 20.9316L83.5268 21.0625C84.45 20.0932 84.7991 19.5448 84.7991 19.5448L81.6323 14.5627C81.6323 14.5627 76.8987 10.9393 72.3139 12.7518C67.7259 14.5627 66.346 21.084 66.346 21.084C66.346 21.084 60.2358 17.164 54.2265 20.9929C47.2609 25.4315 50.3384 34.3983 50.3384 34.3983C50.3384 34.3983 43.0451 36.8686 42.4677 43.7278C41.8357 51.2449 46.0779 53.3275 46.0779 53.3275L57.4926 36.4809C57.4926 36.4809 61.8357 34.9765 64.2911 33.9194L69.9413 28.3972L70.4377 28.1239Z" fill="#004669"/>
<path fill-rule="evenodd" clip-rule="evenodd" d="M83.5269 21.0628C82.5243 22.1165 80.8383 23.669 78.105 25.6124C76.2685 26.918 74.3045 26.9694 72.9147 26.7573L70.4379 28.1242C69.7463 29.675 68.3135 31.862 65.4048 33.4012C65.1218 33.552 64.7347 33.7292 64.2913 33.9181L61.7995 36.3537L63.3697 48.7301L72.0014 49.2206L70.4329 40.3814C70.4329 40.3814 70.327 39.5778 70.2724 38.6334C70.2079 37.5333 70.2096 36.241 70.5322 35.7638C71.1593 34.831 75.337 33.1112 75.337 33.1112L79.4568 34.2909C79.4568 34.2909 82.0594 31.0518 82.7923 29.6733C84.4766 26.5055 84.614 23.7883 84.1424 22.047C84.0233 21.6079 83.5269 21.0628 83.5269 21.0628Z" fill="#FFFCFD"/>
<path fill-rule="evenodd" clip-rule="evenodd" d="M83.3524 21.0013L72.9139 26.7571C74.3037 26.9692 76.2693 26.9179 78.1042 25.6123C80.8375 23.6688 82.5234 22.1164 83.5261 21.0626L83.4781 20.9317L83.3524 21.0013Z" fill="#004669"/>
<path fill-rule="evenodd" clip-rule="evenodd" d="M70.4377 28.1239L69.9413 28.3972L64.2911 33.9194C64.7345 33.7289 65.1217 33.5516 65.4046 33.4025C68.3133 31.8617 69.7461 29.6747 70.4377 28.1239Z" fill="#004669"/>
<path fill-rule="evenodd" clip-rule="evenodd" d="M61.0743 35.34L63.0813 31.8507L67.3053 38.9353L65.4043 46.444L61.0743 35.34Z" fill="#EBD719"/>
<path fill-rule="evenodd" clip-rule="evenodd" d="M41.2199 90.0138L62.4906 92.6581L65.2984 68.0177L65.4043 46.4442L61.0744 35.3402L51.7808 38.3009L46.0793 80.2849L41.2199 90.0138Z" fill="#FFF323"/>
<path fill-rule="evenodd" clip-rule="evenodd" d="M80.0547 76.1006L77.5812 45.4924L76.3866 43.9068L76.8995 49.9343L74.7933 84.837L86.102 85.0806L80.0547 76.1006Z" fill="#EBD719"/>
<path fill-rule="evenodd" clip-rule="evenodd" d="M76.4612 44.7738L76.3868 43.9073L72.3133 38.0388L71.7392 47.5009L71.3189 57.5479L68.4665 71.0842L67.7269 84.3305L74.7934 84.8375L76.8997 49.9348L76.4612 44.7738Z" fill="#FFF323"/>
<path fill-rule="evenodd" clip-rule="evenodd" d="M90.3906 82.0822L83.2132 77.2178L80.1507 76.1607L63.9924 74.4211L62.4868 78.7205L77.1196 78.9094L80.9945 81.1312L85.6421 85.0811H90.3906V82.0822Z" fill="#FFFCFD"/>
<path fill-rule="evenodd" clip-rule="evenodd" d="M49.9853 39.0412C49.436 39.4189 48.7824 40.6549 48.5061 41.263C47.8393 42.7343 47.0055 45.8971 46.8168 47.5009C45.8837 55.4338 46.0789 79.4379 46.0789 79.4379L46.9227 80.3906L61.9195 81.6597L64.4526 72.9879L53.9992 71.7188C53.9992 71.7188 57.5316 54.5789 57.8013 48.7717C57.8394 47.9218 57.6177 46.2252 57.4836 45.3868C57.348 44.5435 56.9062 42.8751 56.5323 42.108C56.1766 41.3757 54.6329 39.4637 54.6329 39.4637C54.6329 39.4637 53.1951 38.405 52.6259 38.3006C51.9509 38.1796 50.5511 38.6535 49.9853 39.0412Z" fill="#EBD719"/>
<path fill-rule="evenodd" clip-rule="evenodd" d="M70.3666 35.34C71.4834 34.9788 73.1131 39.1474 73.1131 39.1474L72.9443 40.1763L71.7398 47.5011L70.3666 39.782C70.3666 39.782 69.311 35.683 70.3666 35.34Z" fill="#EBD719"/>
<path fill-rule="evenodd" clip-rule="evenodd" d="M116.286 83.8176L114.117 85.0817V86.2896L90.3913 85.0817V83.8176H116.286Z" fill="#A8BACE"/>
</g>
<g opacity="0.378">
<mask id="mask3" mask-type="alpha" maskUnits="userSpaceOnUse" x="101" y="0" width="54" height="18">
<path fill-rule="evenodd" clip-rule="evenodd" d="M101 17.9941V0.118439H154.937V17.9941H101Z" fill="white"/>
</mask>
<g mask="url(#mask3)">
<path fill-rule="evenodd" clip-rule="evenodd" d="M101 13.3272C102.309 14.8716 103.622 16.4198 104.957 17.9941C111.053 10.6427 118.651 6.62874 127.878 6.41252C137.097 6.19652 144.866 9.82318 151.246 16.8598C152.491 15.1934 153.716 13.5527 154.937 11.9183C139.894 -4.61748 114.576 -3.43148 101 13.3272Z" fill="#7ED321"/>
</g>
<path fill-rule="evenodd" clip-rule="evenodd" d="M107 19.4155C108.345 20.9405 109.692 22.4681 111.043 24C115.36 18.3807 120.946 15.2712 127.956 15.1278C134.979 14.9842 140.692 17.8641 145.222 23.3286C146.48 21.71 147.732 20.0984 149 18.4671C137.787 5.35891 117.316 6.03856 107 19.4155Z" fill="#7ED321"/>
<path fill-rule="evenodd" clip-rule="evenodd" d="M118.519 23.1103C116.733 24.3188 115.239 25.8076 114 27.5797C115.365 29.0585 116.719 30.5251 118.08 32C120.414 28.0501 123.836 25.7799 128.566 25.7288C133.314 25.6775 136.8 27.8727 139.207 31.7784C139.23 31.765 139.259 31.7561 139.275 31.7369C140.487 30.2523 141.695 28.7641 142.914 27.2851C143.07 27.096 142.988 26.9837 142.873 26.8396C139.582 22.736 135.269 20.4296 129.928 20.0494C125.771 19.7534 121.95 20.7895 118.519 23.1103Z" fill="#7ED321"/>
<path fill-rule="evenodd" clip-rule="evenodd" d="M128.597 32.0003C124.457 31.9637 121.031 35.3028 121 39.4024C120.97 43.5808 124.29 46.9756 128.431 46.9999C132.613 47.0246 135.971 43.7188 136 39.5483C136.028 35.432 132.698 32.0367 128.597 32.0003Z" fill="#7ED321"/>
</g>
</svg>
