<svg width="13" height="13" viewBox="0 0 13 13" fill="none" xmlns="http://www.w3.org/2000/svg">
<path fill-rule="evenodd" clip-rule="evenodd" d="M6.5 8C8.93127 8 10.6798 9.107 11.2104 11H2C2.53058 9.107 4.56873 8 7 8H6.5ZM6.5 1C7.87875 1 9 2.12188 9 3.5C9 4.87812 7.87875 6 6.5 6C5.12125 6 4 4.87812 4 3.5C4 2.12188 5.12125 1 6.5 1ZM10.4 3.9C10.4 1.74655 8.65345 0 6.5 0C4.34655 0 2.6 1.74655 2.6 3.9C2.6 5.12915 3.1694 6.2231 4.0573 6.9381C1.67895 7.8312 0 10.0392 0 13H13C13 10.0392 11.3211 7.8312 8.9427 6.9381C9.8306 6.2231 10.4 5.12915 10.4 3.9Z" fill="#9B9B9B"/>
</svg>
