<svg width="127" height="20" viewBox="0 0 127 20" fill="none" xmlns="http://www.w3.org/2000/svg">
<path fill-rule="evenodd" clip-rule="evenodd" d="M22.8579 15.4545V4.97895H20.1448V2.72727H28.0276V4.97895H25.3145V15.4545H22.8579Z" fill="#D20636"/>
<path fill-rule="evenodd" clip-rule="evenodd" d="M31.4005 8.40146C30.1407 8.40146 29.6892 9.64198 29.6518 10.6267H33.1681C33.1307 9.64198 32.7169 8.40146 31.4005 8.40146V8.40146ZM27.3762 11.4734C27.3762 8.71652 28.9183 6.49133 31.4382 6.49133C33.9393 6.49133 35.3494 8.61808 35.3494 11.5716V12.2412H29.6518C29.7458 13.5407 30.479 14.5646 31.8517 14.5646C32.4912 14.5646 33.3186 14.23 33.8264 13.6394L34.8605 15.057C34.0519 15.9825 32.8297 16.475 31.6074 16.475C29.05 16.475 27.3762 14.4664 27.3762 11.4734V11.4734Z" fill="#D20636"/>
<path fill-rule="evenodd" clip-rule="evenodd" d="M40.7273 16.2386L39.11 13.0682L37.4742 16.2386H35.0294L37.681 11.3944L35.1611 6.72766H37.6245L39.11 9.72091L40.577 6.72766H43.0403L40.5204 11.3944L43.1907 16.2386H40.7273Z" fill="#D20636"/>
<path fill-rule="evenodd" clip-rule="evenodd" d="M43.7734 16.2386V6.72766H46.0299V10.2721H48.8693V6.72766H51.1448V16.2386H48.8693V12.3399H46.0299V16.2386H43.7734Z" fill="#D20636"/>
<path fill-rule="evenodd" clip-rule="evenodd" d="M57.8955 11.4733C57.8955 9.91773 57.35 8.57851 56.109 8.57851C54.9055 8.57851 54.36 9.91773 54.36 11.4733C54.36 13.0484 54.9055 14.3879 56.109 14.3879C57.35 14.3879 57.8955 13.0484 57.8955 11.4733V11.4733ZM52.0096 11.4733C52.0096 8.81514 53.4388 6.49124 56.1091 6.49124C58.817 6.49124 60.2271 8.81514 60.2271 11.4733C60.2271 14.1512 58.817 16.4749 56.1091 16.4749C53.4388 16.4749 52.0096 14.1512 52.0096 11.4733V11.4733Z" fill="#D20636"/>
<path fill-rule="evenodd" clip-rule="evenodd" d="M67.9368 16.2386V5.42818H63.781V16.2386H61.2611V3.10455H70.4753V16.2386H67.9368Z" fill="#D20636"/>
<path fill-rule="evenodd" clip-rule="evenodd" d="M77.2258 11.4733C77.2258 9.81929 76.6243 8.57851 75.458 8.57851C74.8565 8.57851 74.1982 9.05124 73.8975 9.68137V13.2653C74.1982 13.8759 74.8565 14.3879 75.458 14.3879C76.6243 14.3879 77.2258 13.1471 77.2258 11.4733V11.4733ZM73.8975 15.0375V19.8619H71.6408V6.72786H73.8975V7.9289C74.4613 6.98345 75.3077 6.49124 76.1915 6.49124C78.2413 6.49124 79.5575 8.36215 79.5575 11.4733C79.5575 14.5647 78.2413 16.4749 76.1915 16.4749C75.3265 16.4749 74.4613 16.0219 73.8975 15.0375V15.0375Z" fill="#D20636"/>
<path fill-rule="evenodd" clip-rule="evenodd" d="M86.1575 11.4733C86.1575 9.91773 85.6123 8.57851 84.3714 8.57851C83.1678 8.57851 82.6224 9.91773 82.6224 11.4733C82.6224 13.0484 83.1678 14.3879 84.3714 14.3879C85.6123 14.3879 86.1575 13.0484 86.1575 11.4733V11.4733ZM80.2719 11.4733C80.2719 8.81514 81.7009 6.49124 84.3714 6.49124C87.0791 6.49124 88.4895 8.81514 88.4895 11.4733C88.4895 14.1512 87.0791 16.4749 84.3714 16.4749C81.7009 16.4749 80.2719 14.1512 80.2719 11.4733V11.4733Z" fill="#D20636"/>
<path fill-rule="evenodd" clip-rule="evenodd" d="M95.0708 8.79538H91.4602V16.2385H89.2037V6.72784H95.0708V8.79538Z" fill="#D20636"/>
<path fill-rule="evenodd" clip-rule="evenodd" d="M101.408 11.4733C101.408 9.81929 100.806 8.57851 99.64 8.57851C99.0382 8.57851 98.3802 9.05124 98.0793 9.68137V13.2653C98.3802 13.8759 99.0382 14.3879 99.64 14.3879C100.806 14.3879 101.408 13.1471 101.408 11.4733V11.4733ZM98.0793 15.0375V19.8619H95.8228V6.72786H98.0793V7.9289C98.6434 6.98345 99.4897 6.49124 100.373 6.49124C102.423 6.49124 103.739 8.36215 103.739 11.4733C103.739 14.5647 102.423 16.4749 100.373 16.4749C99.5083 16.4749 98.6434 16.0219 98.0793 15.0375V15.0375Z" fill="#D20636"/>
<path fill-rule="evenodd" clip-rule="evenodd" d="M108.365 8.40146C107.105 8.40146 106.654 9.64198 106.616 10.6267H110.133C110.095 9.64198 109.682 8.40146 108.365 8.40146V8.40146ZM104.341 11.4734C104.341 8.71652 105.883 6.49133 108.403 6.49133C110.904 6.49133 112.314 8.61808 112.314 11.5716V12.2412H106.616C106.71 13.5407 107.444 14.5646 108.816 14.5646C109.456 14.5646 110.283 14.23 110.791 13.6394L111.825 15.057C111.017 15.9825 109.794 16.475 108.572 16.475C106.015 16.475 104.341 14.4664 104.341 11.4734V11.4734Z" fill="#D20636"/>
<path fill-rule="evenodd" clip-rule="evenodd" d="M112.878 11.4733C112.878 8.57851 114.533 6.49124 117.034 6.49124C118.463 6.49124 119.403 7.10189 119.93 7.7715L118.801 9.40579C118.388 8.8741 117.899 8.57851 117.278 8.57851C115.981 8.57851 115.21 9.81929 115.21 11.4733C115.21 13.1273 115.981 14.3879 117.278 14.3879C117.899 14.3879 118.388 14.092 118.801 13.5603L119.93 15.1949C119.403 15.8645 118.463 16.4749 117.034 16.4749C114.533 16.4749 112.878 14.3879 112.878 11.4733" fill="#D20636"/>
<path fill-rule="evenodd" clip-rule="evenodd" d="M119.948 11.4733C119.948 8.57851 121.603 6.49124 124.104 6.49124C125.533 6.49124 126.474 7.10189 127 7.7715L125.872 9.40579C125.458 8.8741 124.969 8.57851 124.348 8.57851C123.051 8.57851 122.28 9.81929 122.28 11.4733C122.28 13.1273 123.051 14.3879 124.348 14.3879C124.969 14.3879 125.458 14.092 125.872 13.5603L127 15.1949C126.474 15.8645 125.533 16.4749 124.104 16.4749C121.603 16.4749 119.948 14.3879 119.948 11.4733" fill="#D20636"/>
<path fill-rule="evenodd" clip-rule="evenodd" d="M8.14938 5.66885L7.08451 3.73223L4.66258 8.12236L0.19104 16.2379H3.18968L8.13821 7.12366C8.3436 6.75483 8.34707 6.04626 8.14938 5.66885" fill="#D20636"/>
<path fill-rule="evenodd" clip-rule="evenodd" d="M7.85046 16.2379H14.1692L11.0056 10.4857L7.85046 16.2379Z" fill="#D20636"/>
<path fill-rule="evenodd" clip-rule="evenodd" d="M12.4045 6.38948C12.4033 7.33649 12.1324 8.30896 11.52 9.54922C11.52 9.54922 11.4935 9.59935 11.4662 9.64948C11.5495 9.80065 14.2148 14.6464 15.0911 16.2381H18.0635L13.6004 8.12714L12.3785 5.90792L12.4045 6.38948Z" fill="#D20636"/>
<path fill-rule="evenodd" clip-rule="evenodd" d="M10.88 9.05273C11.2868 8.24701 11.6443 7.32156 11.6445 6.38935C11.645 5.38234 11.4324 4.38519 11.0187 3.53844L9.13478 0.0129852L8.69078 0.818959L8.69202 0.81818L7.54877 2.89013L8.45464 4.5761L8.7895 5.20078C9.14322 5.85766 9.14148 6.93273 8.78231 7.58805L8.73394 7.67454L6.03965 12.5842L4.03717 16.2379H6.95395C6.95395 16.2379 10.6871 9.4161 10.7602 9.28026C10.8319 9.14597 10.88 9.05273 10.88 9.05273" fill="#D20636"/>
</svg>